<svg xmlns="http://www.w3.org/2000/svg" width="1920" height="1300" viewBox="-600 61 1920 1300"><path d="M-600 59.3a1.7 1.7 0 0 0-1.7 1.7v1300c0 1 .8 1.7 1.7 1.7h1920a1.7 1.7 0 0 0 1.7-1.7V61c0-1-.8-1.7-1.7-1.7H-600Z" style="fill:#fff;fill-opacity:1;stroke-linejoin:miter"/><path d="M-142.6 171.6a70 70 0 0 0-35.7 14.2 67 67 0 0 0-24 44c-.5 4-.5 863.6 0 867.6a65.2 65.2 0 0 0 56 58c2.2.3 25 .3 352 .4h349.5v-78.1h-9.4l-9.3-.1.2-12.8 1-138.2V922h2.8l6.2-.2 3.3-.1v-15.4h10.7v-23.1H412.5v-28.6h-17.6v-14.9l.1-14.8h5.9l5.8-.1V587.6H364v237.2h11.9v29.8h-17.4v28.6h-21.3c-12 0-21.3-.1-21.3-.2 0-.2.2-.4.3-.5.2-.2.7-1 1-1.8.7-1.3.7-1.6.7-4.4 0-2.8 0-3-.7-4.4a44 44 0 0 0-11.2-10.6c-1.7-.8-2.4-.8-4.6.4-3.1 1.6-4.3 1.4-8-1.3-1-.8-2-1.4-2.4-1.5-1-.2-2.3.4-6.3 2.5-5.4 3-8.4 4-10.7 3.7-1.5-.2-2.1-.5-4-2.2-1.6-1.6-2.6-2-3.5-1.4-1.4.9-5.1 1.4-19 2.4-13.4 1-22 1.3-23.8.5a4.4 4.4 0 0 1-2.9-4.3c0-1-1.4-3.6-3.3-5.8a20 20 0 0 1-4-6.3c-.4-2-2.7-3.5-6.8-4.5-2.4-.6-4.4-.9-9.9-1.4-2.2-.1-5.7-.5-7.9-.8-2.7-.3-4.7-.5-6.4-.4-2.3.1-2.6.2-4 1-.8.4-3 1.3-4.8 1.9a45.7 45.7 0 0 0-13.2 6.7c-9.7 7.1-11.5 8-16.6 8.2-4.7.3-10.5-.6-13.2-2-2.4-1.1-4.2-1.3-13.4-1l-9.3.1h-1l-.5-8.2a99.4 99.4 0 0 0-1.8-16.5c-.6-2-1-5.7-1.4-11-1.3-23.5-3-34-7.6-47.5-2.7-8-4.8-12.5-7-15.4-.7-1-1.7-2.8-2.3-4.1-1.9-4.2-2.2-6.5-2.5-19.4-.1-5.3-.4-11.1-.6-13a58.2 58.2 0 0 0-8.8-27.4l-1.3-2 .7-2.1a60 60 0 0 0 2.2-12c.3-3 .7-5.5.8-5.6l4 .2c13.3 1.2 21.2 1 23.9-.3a7.3 7.3 0 0 0 3-2.8c.5-1 1-4 1-6 0-1.8.9-3.2 3.8-5.8 3.6-3.2 4.4-5 3.2-7.1a7 7 0 0 0-1.7-2l-1.3-1 1.3-1.6 1.3-1.7v-1.8a36 36 0 0 0-3.4-9.9c-.8-1.7-.8-2-.5-2a17 17 0 0 0 5.3-3.1c1-1 1-1.2 1-2.3 0-2-1.4-4.4-6.5-10.7a18.9 18.9 0 0 1-2.7-3.7l1.5-1.3c2.8-2.4 3.4-3.9 2.8-7.3-.3-1.8-.3-2 .3-3 .8-2 .7-4.2-.6-7.4l-4.2-9a75.5 75.5 0 0 1-5.4-13.3l-2.4-6.6c-1.2-2-3.7-4.4-6.3-6A95.4 95.4 0 0 0 39 543.7a43.8 43.8 0 0 0-28.2 16.9 56.4 56.4 0 0 0-12.4 36.3c0 10.7 1.5 17 6.4 26.6 2.7 5.4 3.7 8 4.6 12 1.2 5.5 3 19.7 2.6 20.2-.3.3-.9.3-2 0-.4-.2-.7 0-1.6 1.5-1.2 1.6-1.2 1.7-2 1.5l-1-.1-1.3 3.6-4 10-2.4 6.3-1.7 1.3A90.5 90.5 0 0 0-17.8 693a57.1 57.1 0 0 0-8.3 14c-.8 2-1 2.4-3.4 5.1-5.2 5.9-8 10-8.6 12-.3 1.3-1.5 3.1-4.9 7.3-2.6 3.4-6.8 9.4-8.8 12.8-3.4 5.8-4.6 9-6.5 17.4a156 156 0 0 0-4.8 38c-.3 1.1-1.8.5-4.6-1.9a29.5 29.5 0 0 0-16.9-6.2c-1.9 0-2.3.1-3.3.7a8.3 8.3 0 0 0-3.2 4.6 30.4 30.4 0 0 0 .9 16.1c2 6.3 2.7 10.1 2.7 13.6 0 2.1 0 2.4-.6 2.9a3 3 0 0 1-1.7.7c-4.1.5-6.4 1.4-7 2.7a51.3 51.3 0 0 0 1.2 25.2 141 141 0 0 1 1 36.2 850 850 0 0 1-4.6 29.5c-2 11.6-2.7 17.6-3.2 24.6-.4 6-1 9.2-1.7 10.9a39 39 0 0 0-1.2 12c-.2 8.1-.5 11.3-1.2 13-.7 1.6-.9 4-1.2 14a273 273 0 0 0 0 18.1c.3 10.8.6 13 1.4 14.2.6 1 1 2.4 1 3.8 0 1.6.4 2.7 1.2 3.5.7.6 1 1.3 1.3 2.9.3 1.7 6 8.4 11.7 13.6 4.3 4 5.6 4.9 7.6 5.5 1 .3 4.1 1.5 7 2.8 6.1 2.6 9 3.7 14.4 5.5a71 71 0 0 1 5.4 2c2.4 1.2 3.4 2.8 3.8 6.2l.2 1.3h-71.7V404.3h927.3v434.2H881V534.9c-.1-283.3-.1-303.8-.5-306.3a65.1 65.1 0 0 0-59.9-57c-3.2-.3-960.2-.3-963.3 0Zm704.1 85.7c4.7 1.3 8 3.3 11.5 6.7a22 22 0 0 1 5.3 8.3c1.5 4 1.6 4.5 1.5 23.1-.1 16.4-.1 16.8-.6 18.6-1.7 6-5.2 10.7-10 14-4 2.6-7 3.6-12 4-4.4.2-25.1.2-28 0-9-1-17-7.4-20.1-16.2-1.2-3.5-1.2-3.4-1.3-19.8l.1-17.9a24 24 0 0 1 16.3-20.1c3.6-1.2 4.2-1.3 20.4-1.2 14.5 0 15 0 17 .5Zm110.2-.2a24.3 24.3 0 0 1 19.4 18c.4 1.8.5 2.4.6 18.1 0 17.7 0 18.7-1.2 22.2-1.5 4.7-3.8 8-7.8 11.3a30 30 0 0 1-9 4.6c-2.4.7-6.6.8-19 .8-14.8 0-16.5-.1-20.9-2.2a23 23 0 0 1-6.8-4.7 23.6 23.6 0 0 1-6.7-11.3l-.6-2.2v-34.5l.6-2.3a24.2 24.2 0 0 1 19.2-17.8c2.7-.5 29.4-.5 32.2 0Zm111.7 0a24.3 24.3 0 0 1 19.4 17.7l.6 2.4.1 16c.1 17.8 0 18.8-1.5 23a24.8 24.8 0 0 1-15.8 14.9c-2.9 1-7 1-21.6 1-13.6-.1-14-.2-17.7-1.6a26.7 26.7 0 0 1-10.4-7.7 29.2 29.2 0 0 1-4.4-9c-.5-2.1-.5-2.2-.5-19.4 0-16.1 0-17.4.4-19 1.2-4.6 3.1-8.1 6.2-11.2 3.8-4 8-6.2 13.1-7.1 2.7-.5 29-.5 32.1 0ZM-80.9 852.8c.7.8 2.4 7.4 3.2 12.3a2700 2700 0 0 0 6.6 39.5c1.4 8 2.2 13.4 3 19.7.8 7 1.1 7.8 5.4 10.6 2.4 1.6 4.2 2.7 4.7 2.7 1 0 5-3.2 7.4-6 1.9-2.2 2.4-3.2 2.7-4.7.4-3.3 2-3.1 5.4.5a20 20 0 0 1 3.7 5.4c.5 1 .5 1.4.4 4a91 91 0 0 1-3.7 18.4c-1.9 6.4-2.8 13.3-3.6 27.8l-.6 8.7-4.4.8c-12.7 2-15 2.8-19.5 7.1-4.7 4.8-6 7.9-7 17.4-.6 4.7-.5 8.5 0 10.7a65.7 65.7 0 0 0 14.4 23c2.9 3 4 4.7 3.8 5.4-.5 1.3-7.9-.4-12.1-2.7l-3.4-1.4-3-1.1c-3.5-1.7-8.5-7-11.6-11.8-1.2-1.9-4.7-9.7-5.8-12.7-3.8-11-3.4-39.9 1-68 1-6.6 2.6-14 4.4-21.3 3-11.9 3.8-17 4-24.7.3-5 .7-8.3 1.2-9 .9-1 1.4-10.1 1.7-30.5.3-12.5.6-19.2.9-20 .2-.6.4-.6.8-.1Zm289.5 7 2 2.7c2.4 3.7 2.5 4.1 1 4.8-2.1 1-4 .4-5-1.5-.4-.8-.5-1.4-.5-3.2 0-1.2.1-2.5.3-3 .4-.8 1.2-.8 2.2.2Zm-10.7 6.3a15 15 0 0 1-3.1 5.5c-1 1-1.3 1.2-2 1.2-2.2 0-2.3-4.1 0-6a5 5 0 0 1 3.7-1.3c1.1 0 1.3.1 1.4.6Zm-17 9.6c.5.6 0 1.5-2 3.7a14.2 14.2 0 0 0-2.3 3l-.3.8h-7.6l1-.8 2.5-2.2a24 24 0 0 1 5.2-4c1.6-.9 3-1 3.5-.5Zm-14.2 19.8v10.8h5.4v15.2h3.3c1.8.1 31 .3 64.8.4 57.4.3 81.5.5 81.7.8.3.2.6 10.6.9 23.1.2 10.4.5 57 .8 119.2v12.6H249l1.3-2.8a2611 2611 0 0 1 10.2-21.8 84.8 84.8 0 0 0 6.7-17c1.7-6.3 2.6-8.9 4.5-13.4 1.8-4.4 2.3-5.7 2.7-7.8.5-2.4 2-4.5 6.7-9.8 3.2-3.6 4.6-6.3 5.5-10.4.7-3.2 1.2-9.2 1.3-13.9 0-3.8 0-4.4-.6-6.2-.6-2.2-3-7.3-4.6-9.8-3.6-5.5-9-8.5-20.9-11.5-6.2-1.6-18.2-4-30-6a846.5 846.5 0 0 1-33.2-6.2c-2.4-.5-7.8-.8-17.1-1-4.7 0-9-.2-9.8-.3-2-.3-3.5-1.2-6.1-3.5a17 17 0 0 0-5-3.6c-.8 0-6.1-4.1-12.7-9.9-6-5.1-9.5-7.6-11.2-7.6-2.2 0-9.7-4.6-9.7-6 0-.6.9-1 2.6-1.3 2.3-.3 3-.7 3.7-2.5.6-1.2.9-1.6 1.5-1.9 1-.4 3.5-.7 9.5-1 4.2-.3 5.7-.8 6-1.8.2-.9 0-2.6-.6-5.2-.7-2.8-.6-3.8.5-5 .9-1 2-1.5 5.8-2.2a30.7 30.7 0 0 0 10.5-3.6c.1 0 .2 4.9.2 10.9Zm343.7 27c3 0 3 0 3.4 2.8.8 4.7 1 28.3 1.4 108.7l.1 43.6H344.7l.2-11.1.2-49.1c.2-54.6.7-92.8 1.2-94.5.1-.4.8-.5 8.5-.5 17.4-.2 153.1-.1 155.6 0Zm-323.6 102.2c.6.7-.3 3.7-3.5 11-2.5 5.7-4 9.8-5 13a106 106 0 0 1-4.6 13.1c-2 4.6-2.1 4.8-2.2 10.6l-.1 5.2H39v-5.3l.2-5.3a1774.3 1774.3 0 0 1 29.4 1c4.5.2 8.6.6 11.7 1 4.6.6 5.8.1 13.4-4.5a49 49 0 0 1 8.9-4.9c1.4 0 5.3-6 7-11 1.3-3.4 1.7-9.3 1.3-15.7l-.2-2.6h1.4l10.1-.4a839 839 0 0 1 50.4-.6c6.4.2 6.3.2 9.6-2.5 3.2-2.5 3.9-2.8 4.5-2Zm-186.9 43c.7.7.4 3.8-1 8.6l-.4 1.3h-5.7a25 25 0 0 1-5.6-.3c0-.4 2-6.2 2.4-7.2 1-2 1.7-2.4 5-2.7 2.9-.3 4.8-.2 5.3.3Z" style="fill:#000;fill-opacity:1;stroke-linejoin:miter"/><path d="M652 554.4c-2.8.7-5.8 2.8-7.8 5.3L626 591l-45 77.7a9476 9476 0 0 0-28 48.9c-2.2 4.1-2 9.4.2 13.4 1 2 3.2 4.3 5.3 5.7 7 4.6 15.3 3.6 20.4-2.6.6-.7 7.2-11.8 14.6-24.7l16-27.8a40283.2 40283.2 0 0 0 61.7-107.4c.8-2 1-5.8.5-7.9a17 17 0 0 0-12.3-12c-1.9-.4-5.8-.4-7.5 0Zm-140.5 16.7a19 19 0 0 0-4.9 2.3c-1.4 1-61.9 61.3-63.4 63.2a18.5 18.5 0 0 0-3 6 21 21 0 0 0 .3 7.9c1.2 4-.6 2 34 36.6 31.3 31.3 32 31.9 33.8 32.8a13 13 0 0 0 7.3 1.7c5.8-.4 11-4 13.6-9.3a14.2 14.2 0 0 0-1.3-15.4c-.5-.7-12-12.5-25.6-26a1956 1956 0 0 1-24.6-24.8c0-.1 10.8-11 24.1-24.2 13.2-13.2 24.8-24.8 25.6-25.8a16 16 0 0 0 3.2-6.2c.5-2 .3-5.7-.4-7.8-1.6-4.8-5.8-9-10.7-10.6a19 19 0 0 0-8-.4Zm186.5 0a17 17 0 0 0-12 12.7 13 13 0 0 0 1.2 9.4l1 2 25.4 25.5L739 646l-25 25.2c-26.7 26.7-26.6 26.7-27.7 30-2.7 7.8 2.4 16.8 11 19.7 2.3.7 6.1.8 8.5 0 3.7-1.2 2.2.2 36.2-33.8 34.2-34.1 32.7-32.5 33.9-36.4.7-2.2.9-5.6.4-7.9a16 16 0 0 0-1.4-3.8l-1-2-31.3-31.4c-22-22-31.9-31.7-33-32.5a12.3 12.3 0 0 0-7.5-2.3c-2-.1-3 0-4 .2Zm53.8 314.8a9.8 9.8 0 0 0-5.8 5.3l-.7 1.6-.1 19.7v19.8l-1 .3a130.3 130.3 0 0 0-26.8 9.4l-3.5 1.7-8.5-10.2c-17.5-20.9-16.4-19.6-18.3-20.6a10.6 10.6 0 0 0-10.3.6 2162 2162 0 0 0-33.2 27.8 9.9 9.9 0 0 0-1.6 12.8c.4.6 6 7.4 12.5 15 6.4 7.7 11.8 14.1 11.8 14.3.1.1-.5 1-1.2 2.1a151.8 151.8 0 0 0-13.9 23.8c-.7 1.7-1.3 2.8-1.5 2.8l-18.6-3.2c-10-1.8-18.8-3.2-19.5-3.2-1.3 0-3.3.5-4.8 1.3-2.2 1.1-4.3 4-5 6.6-.9 4.1-7.3 41.9-7.3 43.2 0 2.1.5 3.8 1.7 5.6a10 10 0 0 0 6.8 4.4l19 3.3 17.2 3 .1 1.6a145 145 0 0 0 4.7 27.6c.5 2 .8 3.6.7 3.6l-16.4 9.5c-17.6 10.2-18.1 10.5-19.4 13.3a10 10 0 0 0-.4 7.8c.8 2.1 21.7 38.2 23 39.6a10 10 0 0 0 11.3 2.3c.8-.4 8.6-4.8 17.3-9.9l15.8-9 3.3 3.3c6.1 6 15.2 13.5 20.9 17 .8.6 1 .9 1 1.2 0 .3-3 8.3-6.4 17.9-3.5 9.5-6.5 18-6.6 18.7-.6 3.8 1.8 8.5 5.2 10.2 2.2 1.1 40.8 15 42.4 15.4a10 10 0 0 0 8.1-2.3c2-1.5 2.4-2.6 9.2-21.2l6.4-17.8 1.6.2 4.4.4a189 189 0 0 0 27.2-.5l6.5 17.7c3.5 9.7 6.7 18 7 18.7a10 10 0 0 0 10.2 4.8 1162 1162 0 0 0 42.4-15.3c3.4-1.8 5.7-6.2 5.3-10-.1-.6-3-9-6.6-18.8a1510 1510 0 0 1-6.5-18c0-.4.2-.7 1-1.2a142 142 0 0 0 20.9-17.1l3.4-3.4 15.7 9.1 17.4 10c1.4.6 1.7.6 4 .6 2.4 0 2.6 0 4.3-.9a9.7 9.7 0 0 0 3-2c.7-1 4.3-7 11.7-19.8 5.9-10.1 10.9-19 11.2-19.7 1.4-3.6.6-7.6-2.2-10.5a123 123 0 0 0-17.6-10.8l-16.5-9.5.5-2.2a143.5 143.5 0 0 0 5.2-30.5l18.5-3.3a727 727 0 0 0 19.5-3.6c3.4-1.2 6-4.3 6.7-8a989 989 0 0 0-7.5-45.3c-.9-3-3.3-5.6-6.1-6.7-2.7-1-3-1-22.9 2.5l-18.7 3.3c-.3 0-.5-.2-.5-.3 0-.6-5.6-11.6-7.5-15a177.2 177.2 0 0 0-8.7-13.4 1617.4 1617.4 0 0 1 24-28.8c2.5-3.3 2.6-8 .3-11.6-.6-.9-5.2-4.9-17.4-15.2-19.4-16.3-18.8-15.9-22.8-15.9-2.1 0-2.7.1-4 .6l-2.3 1.3c-.6.5-24.3 28.4-25.2 29.7 0 .1-1.8-.6-3.8-1.5a88.3 88.3 0 0 0-12-5 187 187 0 0 0-12.5-4l-2-.5-.9-.3V914l-.2-20a10 10 0 0 0-6.8-8.3c-1.5-.5-1.9-.5-24.1-.5h-22.7l-1.5.6Zm30 122.8a58 58 0 0 1 19.2 5.7 56 56 0 0 1 21.6 80.6 55.7 55.7 0 1 1-40.8-86.3Z" style="fill:#000;fill-opacity:1;stroke-linejoin:miter"/></svg>